HIERARCHY
ROOT Hips
{
	OFFSET 0.000000 0.000000 0.000000
	CHANNELS 6 Xposition Yposition Zposition Zrotation Yrotation Xrotation 
	JOINT LeftUpLeg_virtual
	{
		OFFSET 0.000000 0.000000 0.000000
		CHANNELS 3 Zrotation Yrotation Xrotation
		JOINT LeftUpLeg
		{
			OFFSET 8.479694 -4.795517 -0.379053
			CHANNELS 3 Zrotation Yrotation Xrotation
			JOINT LeftLeg
			{
				OFFSET 0.485052 -32.551468 0.112863
				CHANNELS 3 Zrotation Yrotation Xrotation
				JOINT LeftFoot
				{
					OFFSET 0.438033 -32.635670 -3.012641
					CHANNELS 3 Zrotation Yrotation Xrotation
					JOINT LeftToeBase
					{
						OFFSET 0.970169 -13.225353 11.864223
						CHANNELS 3 Zrotation Yrotation Xrotation
						End Site
						{
							OFFSET 0.000000 0.000000 0.000000
						}
					}
				}
			}
		}
	}
	JOINT RightUpLeg_virtual
	{
		OFFSET 0.000000 0.000000 0.000000
		CHANNELS 3 Zrotation Yrotation Xrotation
		JOINT RightUpLeg
		{
			OFFSET -8.479694 -4.795517 -0.379053
			CHANNELS 3 Zrotation Yrotation Xrotation
			JOINT RightLeg
			{
				OFFSET -0.484100 -32.551483 0.112903
				CHANNELS 3 Zrotation Yrotation Xrotation
				JOINT RightFoot
				{
					OFFSET -0.438985 -32.635651 -3.012681
					CHANNELS 3 Zrotation Yrotation Xrotation
					JOINT RightToeBase
					{
						OFFSET -0.970169 -13.225354 11.864223
						CHANNELS 3 Zrotation Yrotation Xrotation
						End Site
						{
							OFFSET 0.000000 0.000000 0.000000
						}
					}
				}
			}
		}
	}
	JOINT Spine_virtual
	{
		OFFSET 0.000000 0.000000 0.000000
		CHANNELS 3 Zrotation Yrotation Xrotation
		JOINT Spine
		{
			OFFSET 0.000000 7.722015 1.166203
			CHANNELS 3 Zrotation Yrotation Xrotation
			JOINT Spine1
			{
				OFFSET 0.000000 12.024086 0.248766
				CHANNELS 3 Zrotation Yrotation Xrotation
				JOINT Spine2
				{
					OFFSET -0.000000 11.503036 -0.491240
					CHANNELS 3 Zrotation Yrotation Xrotation
					JOINT Neck_virtual
					{
						OFFSET 0.000000 0.000000 0.000000
						CHANNELS 3 Zrotation Yrotation Xrotation
						JOINT Neck
						{
							OFFSET 0.000000 18.430687 -3.123054
							CHANNELS 3 Zrotation Yrotation Xrotation
							JOINT Head
							{
								OFFSET -0.000000 9.051071 1.034021
								CHANNELS 3 Zrotation Yrotation Xrotation
								End Site
								{
									OFFSET 0.000000 0.000000 0.000000
								}
							}
						}
					}
					JOINT LeftShoulder_virtual
					{
						OFFSET 0.000000 0.000000 0.000000
						CHANNELS 3 Zrotation Yrotation Xrotation
						JOINT LeftShoulder
						{
							OFFSET 6.197824 13.665230 -4.064723
							CHANNELS 3 Zrotation Yrotation Xrotation
							JOINT LeftArm
							{
								OFFSET 7.778132 -0.187073 -1.709282
								CHANNELS 3 Zrotation Yrotation Xrotation
								JOINT LeftForeArm
								{
									OFFSET 21.954697 0.000000 -2.041093
									CHANNELS 3 Zrotation Yrotation Xrotation
									JOINT LeftHand
									{
										OFFSET 22.992908 0.000000 -0.870901
										CHANNELS 3 Zrotation Yrotation Xrotation
										End Site
										{
											OFFSET 0.000000 0.000000 0.000000
										}
									}
								}
							}
						}
					}
					JOINT RightShoulder_virtual
					{
						OFFSET 0.000000 0.000000 0.000000
						CHANNELS 3 Zrotation Yrotation Xrotation
						JOINT RightShoulder
						{
							OFFSET -6.197824 13.665230 -4.064723
							CHANNELS 3 Zrotation Yrotation Xrotation
							JOINT RightArm
							{
								OFFSET -7.778132 -0.187073 -1.709282
								CHANNELS 3 Zrotation Yrotation Xrotation
								JOINT RightForeArm
								{
									OFFSET -21.954697 0.000000 -2.041093
									CHANNELS 3 Zrotation Yrotation Xrotation
									JOINT RightHand
									{
										OFFSET -22.992908 0.000000 -0.870901
										CHANNELS 3 Zrotation Yrotation Xrotation
										End Site
										{
											OFFSET 0.000000 0.000000 0.000000
										}
									}
								}
							}
						}
					}
				}
			}
		}
	}
}
MOTION
Frames: 10
Frame Time: 0.033333
-3.970921 81.011650 14.474962 179.913193 -1.941661 179.869822 -6.009907 1.152712 14.126065 6.119299 -7.276440 -20.947191 4.136094 3.498987 27.108573 3.793000 -5.179855 -12.241084 0.000000 0.000000 0.000000 -2.619295 -0.057805 14.678502 -4.032593 -1.345406 -16.862661 -1.887565 0.211794 27.057251 7.370970 4.958064 -9.473430 0.000000 0.000000 0.000000 -0.395910 2.965632 1.645362 -2.896227 0.047992 -6.363996 -1.340595 -2.576627 5.974690 0.016935 -0.007504 -0.069484 -1.749551 -1.175713 6.772681 0.063341 2.687272 -8.202658 0.000000 0.000000 0.000000 0.031416 -0.356813 3.931914 15.479154 9.879247 -5.441454 -8.392354 0.256067 -45.955343 -0.337138 -35.225813 -7.442931 0.000000 0.000000 0.000000 -4.498717 0.954697 3.328248 4.831486 -16.054857 -4.403462 15.457867 -7.258575 -47.816160 -2.080341 34.113325 -5.458319 0.000000 0.000000 0.000000 
-3.979525 81.013145 14.459655 179.835753 -1.864287 179.760621 -6.011258 1.094098 14.009093 6.141240 -7.472981 -21.065354 3.882404 3.184521 26.872913 3.432428 -5.631045 -12.613219 0.000000 0.000000 0.000000 -2.635030 -0.031906 14.509067 -4.059198 -1.554240 -17.005967 -1.815613 -0.276171 26.778984 7.135649 4.646144 -9.673213 0.000000 0.000000 0.000000 -0.429369 3.020800 1.699517 -2.918319 0.094042 -6.293000 -1.353991 -2.518796 6.037656 -0.015286 0.044252 -0.034300 -1.698381 -1.132440 6.768671 0.107214 2.625524 -8.172778 0.000000 0.000000 0.000000 0.095770 -0.534180 3.880568 15.504343 9.903539 -5.477714 -8.378236 0.204491 -45.939634 -0.345857 -35.262344 -7.423049 0.000000 0.000000 0.000000 -4.449405 0.867299 3.270532 4.824043 -16.167198 -4.335965 15.487497 -7.242707 -47.791377 -2.148423 34.116932 -5.511494 0.000000 0.000000 0.000000 
-3.985814 81.015091 14.446929 179.908863 -1.915895 179.744283 -5.963657 1.075308 13.988352 6.159089 -7.492056 -21.045601 3.888363 3.136340 26.904568 3.428863 -5.664877 -12.612807 0.000000 0.000000 0.000000 -2.555742 -0.045871 14.474571 -4.044451 -1.543137 -16.957717 -1.801252 -0.267668 26.785181 7.110490 4.588763 -9.690141 0.000000 0.000000 0.000000 -0.374248 2.984659 1.660344 -2.884913 0.065055 -6.299945 -1.327392 -2.554837 6.020852 0.036321 0.016767 -0.064711 -1.763143 -1.198614 6.757674 0.092902 2.635154 -8.222757 0.000000 0.000000 0.000000 -0.014491 -0.394437 3.953827 15.541662 9.810658 -5.416697 -8.357007 0.132762 -45.981342 -0.365005 -35.336824 -7.413316 0.000000 0.000000 0.000000 -4.507373 0.874169 3.347714 4.844165 -16.149356 -4.446403 15.458721 -7.184040 -47.849252 -2.080839 34.152886 -5.461514 0.000000 0.000000 0.000000 
-3.981815 81.010834 14.439924 179.873428 -1.934425 179.756659 -5.979644 1.059834 13.968462 6.127653 -7.525438 -21.042180 3.898344 3.145170 26.933359 3.447578 -5.641703 -12.621344 0.000000 0.000000 0.000000 -2.599405 -0.083547 14.434503 -4.055126 -1.575569 -16.903916 -1.793403 -0.231430 26.780658 7.142527 4.585579 -9.677912 0.000000 0.000000 0.000000 -0.370951 2.981216 1.637809 -2.915886 0.108777 -6.261525 -1.331931 -2.510412 6.054354 0.013889 0.046024 -0.041034 -1.728464 -1.178621 6.766108 0.101125 2.608826 -8.200488 0.000000 0.000000 0.000000 0.014167 -0.425916 3.982670 15.576168 9.786493 -5.460691 -8.365465 0.060918 -46.068031 -0.417635 -35.297530 -7.368252 0.000000 0.000000 0.000000 -4.489285 0.851493 3.262416 4.850799 -16.207508 -4.466400 15.468280 -7.313664 -47.795738 -2.073852 34.164937 -5.416011 0.000000 0.000000 0.000000 
-3.972048 81.005402 14.434977 179.928015 -1.958180 179.762355 -5.936821 1.026346 13.958714 6.134207 -7.543625 -21.065186 3.925342 3.117337 26.978117 3.463539 -5.656976 -12.636411 0.000000 0.000000 0.000000 -2.543324 -0.117430 14.394596 -4.015875 -1.612930 -16.877138 -1.807611 -0.209483 26.799688 7.181420 4.581190 -9.699011 0.000000 0.000000 0.000000 -0.338824 2.923719 1.617947 -2.921708 0.086828 -6.208140 -1.316031 -2.528889 6.060166 0.023325 0.027035 -0.059826 -1.760155 -1.223851 6.799857 0.057796 2.671347 -8.167801 0.000000 0.000000 0.000000 0.023439 -0.437426 3.918713 15.612991 9.823298 -5.665504 -8.449903 0.205029 -45.969048 -0.575748 -35.207136 -7.177639 0.000000 0.000000 0.000000 -4.521004 0.923136 3.300304 4.862532 -16.181785 -4.480102 15.475373 -7.272277 -47.828844 -2.087563 34.187590 -5.385132 0.000000 0.000000 0.000000 
-3.962425 81.002098 14.429873 179.806451 -1.950775 179.773393 -6.035421 1.029829 13.963262 6.099192 -7.564359 -21.094687 3.933492 3.054564 27.012176 3.467459 -5.629995 -12.622596 0.000000 0.000000 0.000000 -2.636252 -0.146425 14.388314 -4.075481 -1.708504 -16.864813 -1.816433 -0.273060 26.824765 7.145253 4.757264 -9.680358 0.000000 0.000000 0.000000 -0.384358 2.902634 1.584657 -2.998109 0.073186 -6.141331 -1.339168 -2.520786 6.065871 -0.010812 0.031221 -0.045578 -1.667880 -1.150656 6.786525 0.077184 2.659976 -8.210308 0.000000 0.000000 0.000000 0.119718 -0.487177 3.919799 15.664014 9.981149 -5.596997 -8.507486 0.130579 -46.167571 -0.708698 -35.145042 -7.046141 0.000000 0.000000 0.000000 -4.397487 0.872933 3.289564 4.952679 -16.219599 -4.716175 15.389231 -7.215249 -47.811567 -1.998204 34.210676 -5.209663 0.000000 0.000000 0.000000 
-3.960766 80.999344 14.421962 179.922510 -1.964580 179.763079 -5.910894 1.041064 13.987543 6.089288 -7.561567 -21.132651 3.980491 3.061969 27.064440 3.451246 -5.656679 -12.622759 0.000000 0.000000 0.000000 -2.508006 -0.156083 14.386641 -4.051488 -1.792976 -16.883348 -1.827610 -0.247726 26.867538 7.188391 4.740509 -9.692882 0.000000 0.000000 0.000000 -0.329571 2.905594 1.575773 -2.986540 0.062496 -6.090233 -1.284301 -2.529142 6.051761 0.025207 0.019622 -0.064704 -1.701299 -1.196964 6.784375 0.062206 2.668246 -8.277410 0.000000 0.000000 0.000000 0.038990 -0.387450 3.959960 15.663302 9.887102 -5.420041 -8.565183 0.108941 -46.071695 -0.605765 -35.145281 -7.132956 0.000000 0.000000 0.000000 -4.441228 0.867697 3.327681 5.086294 -16.198695 -4.572205 15.384695 -7.089530 -47.827198 -2.202913 34.267950 -5.414859 0.000000 0.000000 0.000000 
-3.964163 80.992882 14.415093 179.885722 -1.966600 179.762888 -5.916505 1.051642 14.007083 6.037170 -7.563602 -21.185804 4.005287 3.051427 27.126600 3.435602 -5.637695 -12.619765 0.000000 0.000000 0.000000 -2.515844 -0.173389 14.401667 -4.090374 -1.885155 -16.903050 -1.839347 -0.222432 26.933796 7.250216 4.756498 -9.681737 0.000000 0.000000 0.000000 -0.348038 2.897802 1.653650 -3.054379 0.032869 -6.037236 -1.257686 -2.541393 5.951046 0.037221 0.009594 -0.036448 -1.680210 -1.154037 6.738984 0.066874 2.675523 -8.318811 0.000000 0.000000 0.000000 0.083074 -0.448676 3.934991 15.711015 9.890515 -5.488966 -8.624610 0.201691 -46.053261 -0.719572 -35.082932 -7.014399 0.000000 0.000000 0.000000 -4.414689 0.917041 3.320828 5.190981 -16.161404 -4.631061 15.393124 -7.173076 -47.896637 -2.185313 34.372445 -5.358035 0.000000 0.000000 0.000000 
-3.976306 80.986603 14.412166 179.917059 -1.939562 179.772437 -5.891167 1.058773 14.017130 6.014107 -7.532929 -21.246779 4.035181 3.033129 27.212958 3.428433 -5.639007 -12.638937 0.000000 0.000000 0.000000 -2.464275 -0.180134 14.386064 -4.121966 -1.899669 -16.943097 -1.839873 -0.188907 27.014778 7.287996 4.749546 -9.688325 0.000000 0.000000 0.000000 -0.339904 2.910912 1.609118 -3.096694 0.055072 -5.935527 -1.246391 -2.504773 6.046034 0.012246 0.033506 -0.056469 -1.654185 -1.178639 6.776078 0.073560 2.672493 -8.330917 0.000000 0.000000 0.000000 0.092086 -0.396231 3.961000 15.731983 9.914501 -5.408736 -8.592790 0.113601 -46.184711 -0.779816 -35.013285 -6.905562 0.000000 0.000000 0.000000 -4.387145 0.886891 3.287662 5.329764 -16.200828 -4.636783 15.377715 -7.268020 -47.835387 -2.222983 34.542217 -5.332759 0.000000 0.000000 0.000000 
-3.983596 80.981529 14.423904 179.805973 -1.838478 179.790195 -6.012538 1.051384 14.006297 5.969004 -7.494476 -21.309254 4.056905 2.989994 27.316800 3.421579 -5.607146 -12.639928 0.000000 0.000000 0.000000 -2.533330 -0.201681 14.348452 -4.233269 -1.885733 -16.981088 -1.810350 -0.172705 27.115095 7.338374 4.782589 -9.679574 0.000000 0.000000 0.000000 -0.401072 2.913379 1.589554 -3.226651 0.073428 -5.860829 -1.243469 -2.479217 6.064176 0.002097 0.041811 -0.008023 -1.576893 -1.100962 6.693353 0.132405 2.630315 -8.381417 0.000000 0.000000 0.000000 0.138082 -0.381416 3.907643 15.714343 9.860497 -5.321858 -8.569201 0.110248 -46.152777 -0.719174 -34.927917 -6.955185 0.000000 0.000000 0.000000 -4.294156 0.864751 3.216542 5.469563 -16.233521 -4.825667 15.316472 -7.419062 -47.774940 -2.131581 34.758556 -5.363073 0.000000 0.000000 0.000000 
